<svg xmlns="http://www.w3.org/2000/svg" width="22.263" height="18.538" viewBox="0 0 22.263 18.538">
  <path id="Icon_ionic-ios-heart-empty" data-name="Icon ionic-ios-heart-empty" d="M19.644,3.938h-.054a6.363,6.363,0,0,0-5.084,2.41,6.363,6.363,0,0,0-5.084-2.41H9.369C6.056,3.965,3.375,6.3,3.375,9.175a10.361,10.361,0,0,0,2.558,6.15,42.97,42.97,0,0,0,8.573,7.151,42.97,42.97,0,0,0,8.573-7.151,10.361,10.361,0,0,0,2.558-6.15C25.638,6.3,22.957,3.965,19.644,3.938ZM21.871,14.56a39,39,0,0,1-7.364,6.284,39.05,39.05,0,0,1-7.364-6.289A9.185,9.185,0,0,1,4.873,9.175,3.673,3.673,0,0,1,6.19,6.4,4.889,4.889,0,0,1,9.38,5.24h.048a5.037,5.037,0,0,1,2.2.5,4.477,4.477,0,0,1,1.627,1.321,1.638,1.638,0,0,0,2.515,0A4.522,4.522,0,0,1,17.4,5.74a5.037,5.037,0,0,1,2.2-.5h.048A4.9,4.9,0,0,1,22.834,6.4,3.662,3.662,0,0,1,24.15,9.175,9.3,9.3,0,0,1,21.871,14.56Z" transform="translate(-3.375 -3.938)"/>
</svg>
