<svg xmlns="http://www.w3.org/2000/svg" width="17.64" height="23.976" viewBox="0 0 17.64 23.976">
  <path id="Icon_awesome-shopping-bag" data-name="Icon awesome-shopping-bag" d="M12.681,7.024v-1.4C12.681,2.521,10.613,0,8.07,0S3.459,2.521,3.459,5.619v1.4H0v11.94c0,1.94,1.29,3.512,2.882,3.512H13.258c1.592,0,2.882-1.572,2.882-3.512V7.024Zm-6.917-1.4A2.6,2.6,0,0,1,8.07,2.809a2.6,2.6,0,0,1,2.306,2.809v1.4H5.764Zm5.764,5.268a.973.973,0,0,1-.865-1.054.973.973,0,0,1,.865-1.054.973.973,0,0,1,.865,1.054A.973.973,0,0,1,11.529,10.887Zm-6.917,0a.973.973,0,0,1-.865-1.054A.973.973,0,0,1,4.611,8.78a.973.973,0,0,1,.865,1.054A.973.973,0,0,1,4.611,10.887Z" transform="translate(0.75 0.75)" fill="#fff" stroke="#000" stroke-width="1.5"/>
</svg>
