<svg xmlns="http://www.w3.org/2000/svg" width="34.5" height="29.202" viewBox="0 0 34.5 29.202">
  <path id="Icon_feather-twitter" data-name="Icon feather-twitter" d="M34,4.5a16,16,0,0,1-4.639,2.295,6.552,6.552,0,0,0-7.354-1.868,6.719,6.719,0,0,0-4.258,6.368v1.5A15.672,15.672,0,0,1,4.455,6s-5.909,13.5,7.386,19.5A17.006,17.006,0,0,1,1.5,28.5c13.3,7.5,29.545,0,29.545-17.25A6.851,6.851,0,0,0,30.927,10,11.626,11.626,0,0,0,34,4.5Z" transform="translate(-0.5 -3.375)" fill="none" stroke="#f40" stroke-linecap="round" stroke-linejoin="round" stroke-width="2"/>
</svg>
