<svg xmlns="http://www.w3.org/2000/svg" width="89.574" height="12" viewBox="0 0 89.574 12">
  <g id="Group_143" data-name="Group 143" transform="translate(-109.838 -1600)">
    <path id="Icon_ionic-ios-star" data-name="Icon ionic-ios-star" d="M17.233,7.529H12.119L10.565,3.681a.609.609,0,0,0-1.057,0L7.955,7.529H2.806a.517.517,0,0,0-.556.462.284.284,0,0,0,.01.078.433.433,0,0,0,.233.326l4.2,2.458L5.083,14.743a.419.419,0,0,0,.191.519.6.6,0,0,0,.313.113.774.774,0,0,0,.348-.1l4.1-2.426,4.1,2.426a.74.74,0,0,0,.348.1.554.554,0,0,0,.309-.113.415.415,0,0,0,.191-.519l-1.613-3.891,4.168-2.481.1-.072a.458.458,0,0,0,.181-.309A.553.553,0,0,0,17.233,7.529Z" transform="translate(107.588 1596.625)" fill="#ffa800"/>
    <path id="Icon_ionic-ios-star-2" data-name="Icon ionic-ios-star" d="M17.233,7.529H12.119L10.565,3.681a.609.609,0,0,0-1.057,0L7.955,7.529H2.806a.517.517,0,0,0-.556.462.284.284,0,0,0,.01.078.433.433,0,0,0,.233.326l4.2,2.458L5.083,14.743a.419.419,0,0,0,.191.519.6.6,0,0,0,.313.113.774.774,0,0,0,.348-.1l4.1-2.426,4.1,2.426a.74.74,0,0,0,.348.1.554.554,0,0,0,.309-.113.415.415,0,0,0,.191-.519l-1.613-3.891,4.168-2.481.1-.072a.458.458,0,0,0,.181-.309A.553.553,0,0,0,17.233,7.529Z" transform="translate(126.088 1596.625)" fill="#ffa800"/>
    <path id="Icon_ionic-ios-star-3" data-name="Icon ionic-ios-star" d="M17.233,7.529H12.119L10.565,3.681a.609.609,0,0,0-1.057,0L7.955,7.529H2.806a.517.517,0,0,0-.556.462.284.284,0,0,0,.01.078.433.433,0,0,0,.233.326l4.2,2.458L5.083,14.743a.419.419,0,0,0,.191.519.6.6,0,0,0,.313.113.774.774,0,0,0,.348-.1l4.1-2.426,4.1,2.426a.74.74,0,0,0,.348.1.554.554,0,0,0,.309-.113.415.415,0,0,0,.191-.519l-1.613-3.891,4.168-2.481.1-.072a.458.458,0,0,0,.181-.309A.553.553,0,0,0,17.233,7.529Z" transform="translate(144.588 1596.625)" fill="#ffa800"/>
    <path id="Icon_ionic-ios-star-4" data-name="Icon ionic-ios-star" d="M17.233,7.529H12.119L10.565,3.681a.609.609,0,0,0-1.057,0L7.955,7.529H2.806a.517.517,0,0,0-.556.462.284.284,0,0,0,.01.078.433.433,0,0,0,.233.326l4.2,2.458L5.083,14.743a.419.419,0,0,0,.191.519.6.6,0,0,0,.313.113.774.774,0,0,0,.348-.1l4.1-2.426,4.1,2.426a.74.74,0,0,0,.348.1.554.554,0,0,0,.309-.113.415.415,0,0,0,.191-.519l-1.613-3.891,4.168-2.481.1-.072a.458.458,0,0,0,.181-.309A.553.553,0,0,0,17.233,7.529Z" transform="translate(163.088 1596.625)" fill="#ffa800"/>
    <path id="Icon_ionic-ios-star-5" data-name="Icon ionic-ios-star" d="M17.233,7.529H12.119L10.565,3.681a.609.609,0,0,0-1.057,0L7.955,7.529H2.806a.517.517,0,0,0-.556.462.284.284,0,0,0,.01.078.433.433,0,0,0,.233.326l4.2,2.458L5.083,14.743a.419.419,0,0,0,.191.519.6.6,0,0,0,.313.113.774.774,0,0,0,.348-.1l4.1-2.426,4.1,2.426a.74.74,0,0,0,.348.1.554.554,0,0,0,.309-.113.415.415,0,0,0,.191-.519l-1.613-3.891,4.168-2.481.1-.072a.458.458,0,0,0,.181-.309A.553.553,0,0,0,17.233,7.529Z" transform="translate(181.588 1596.625)" fill="#ffa800"/>
  </g>
</svg>
