<svg xmlns="http://www.w3.org/2000/svg" width="93.515" height="66.652" viewBox="0 0 93.515 66.652">
  <g id="Group_144" data-name="Group 144" transform="translate(-111.242 -278.348)">
    <path id="Icon_awesome-hand-holding-heart" data-name="Icon awesome-hand-holding-heart" d="M91.773,44.929a6.156,6.156,0,0,0-6.916,0l-15,10.119a11.6,11.6,0,0,1-6.494,1.917H44.158a2.223,2.223,0,1,1,0-4.382H56.869c2.581,0,4.984-1.493,5.406-3.642.536-2.739-1.964-5.121-5.13-5.121H31.17a21.411,21.411,0,0,0-12.03,3.6l-7.549,5.162H2.6A2.428,2.428,0,0,0,0,54.774V67.92a2.428,2.428,0,0,0,2.6,2.191H60.522a11.673,11.673,0,0,0,6.494-1.917L91.562,51.625A3.962,3.962,0,0,0,91.773,44.929Z" transform="translate(111.242 274.889)" fill="#ffa800" opacity="0.615"/>
    <path id="Icon_metro-earth" data-name="Icon metro-earth" d="M26.328,1.928c-13.121,0-23.758,9.035-23.758,20.181S13.207,42.289,26.328,42.289s23.758-9.035,23.758-20.181S39.449,1.928,26.328,1.928Zm0,37.839A23.908,23.908,0,0,1,18.1,38.33L28.923,27.992a1.16,1.16,0,0,0,.375-.838V23.37a1.387,1.387,0,0,0-1.485-1.261c-5.243,0-10.775-4.63-10.829-4.676a1.628,1.628,0,0,0-1.05-.369H9.995A1.387,1.387,0,0,0,8.51,18.325v7.568a1.258,1.258,0,0,0,.821,1.128l5.119,2.174V36.6C9.065,33.409,5.54,28.109,5.54,22.109a15.424,15.424,0,0,1,2-7.568h5.423a1.628,1.628,0,0,0,1.05-.369l5.939-5.045a1.174,1.174,0,0,0,.435-.892V5.183a24.224,24.224,0,0,1,5.939-.733,23.775,23.775,0,0,1,9.108,1.782c-.192.138-.379.282-.559.435a7,7,0,0,0-2.609,5.351,7,7,0,0,0,2.609,5.351,9.745,9.745,0,0,0,6.294,2.218q.22,0,.442-.009c.641,2.042,1.8,7.357-.39,14.676a1.085,1.085,0,0,0-.039.206,22.663,22.663,0,0,1-14.855,5.308Z" transform="translate(154.671 276.42)" fill="#003236" opacity="0.658"/>
  </g>
</svg>
